<svg width="12" height="14" viewBox="0 0 12 14" fill="none" xmlns="http://www.w3.org/2000/svg">
<path d="M6 7C7.65685 7 9 5.65685 9 4C9 2.34315 7.65685 1 6 1C4.34315 1 3 2.34315 3 4C3 5.65685 4.34315 7 6 7ZM9.5 4C9.5 5.933 7.933 7.5 6 7.5C4.067 7.5 2.5 5.933 2.5 4C2.5 2.067 4.067 0.5 6 0.5C7.933 0.5 9.5 2.067 9.5 4ZM0.75 13C0.75 11.2051 2.20507 9.75 4 9.75H8C9.79492 9.75 11.25 11.2051 11.25 13V13.5H10.75V13C10.75 11.4812 9.51878 10.25 8 10.25H4C2.48122 10.25 1.25 11.4812 1.25 13V13.5H0.75V13Z" fill="black" stroke="black"/>
</svg>
